<svg width="500" height="186" viewBox="0 0 500 186" fill="none" xmlns="http://www.w3.org/2000/svg">
<g clip-path="url(#clip0_108_4)">
<path d="M100.113 88.1129C100.113 94.7403 94.7402 100.113 88.1128 100.113C81.4854 100.113 76.1128 94.7403 76.1128 88.1129C76.1128 81.4855 81.4854 76.1129 88.1128 76.1129C94.7402 76.1129 100.113 81.4855 100.113 88.1129Z" fill="#232323" stroke="#CFD0D0"/>
<path d="M62.4932 88.1129C62.4932 94.7403 57.1206 100.113 50.4932 100.113C43.8657 100.113 38.4932 94.7403 38.4932 88.1129C38.4932 81.4855 43.8657 76.1129 50.4932 76.1129C57.1206 76.1129 62.4932 81.4855 62.4932 88.1129Z" fill="#232323" stroke="#CFD0D0"/>
<path d="M137.5 88.5C137.5 95.1274 132.127 100.5 125.5 100.5C118.873 100.5 113.5 95.1274 113.5 88.5C113.5 81.8726 118.873 76.5 125.5 76.5C132.127 76.5 137.5 81.8726 137.5 88.5Z" fill="#232323" stroke="#CFD0D0"/>
<path d="M165.829 152.46L183.532 184.532L151.459 166.828L165.829 152.46Z" fill="#232323" stroke="#CFD0D0"/>
<path d="M12.501 60.0014C12.501 33.7683 33.7674 12.502 60.0019 12.502H116.779C143.014 12.501 164.281 33.7673 164.281 60.0004L164.28 118.425C164.28 143.946 143.78 164.735 118.259 165.092L60.3999 165.902L58.7199 165.857C32.9954 165.162 12.503 144.109 12.502 118.377L12.501 60.0014Z" stroke="#232323" stroke-width="25"/>
<path d="M0.5 56.6522C0.5 26.7458 26.7951 0.5 56.7678 0.5H120.231C150.204 0.49886 176.5 26.7447 176.5 56.6511L176.499 121.873C176.499 150.963 151.083 176.661 121.93 177.068L56.2298 178C26.8216 177.201 0.502294 152.128 0.501152 122.818L0.5 56.6522Z" stroke="#CFD0D0" stroke-miterlimit="2.09003"/>
<mask id="path-7-inside-1_108_4" fill="white">
<path d="M251.341 138.149C251.17 140.965 251 143.824 250.829 146.725C250.658 149.541 250.189 152.272 249.421 154.917C248.738 157.562 247.629 159.952 246.093 162.085C244.642 164.218 242.552 165.925 239.821 167.205C237.432 168.4 234.872 169.21 232.141 169.637C229.41 170.149 226.68 170.362 223.949 170.277C221.218 170.192 218.573 169.765 216.013 168.997C213.453 168.314 211.149 167.333 209.101 166.053C207.053 164.773 205.389 163.109 204.109 161.061C202.829 159.013 201.805 156.794 201.037 154.405C200.354 152.016 199.885 149.541 199.629 146.981C199.373 144.421 199.202 142.032 199.117 139.813C198.776 133.925 198.776 128.122 199.117 122.405C199.117 121.296 199.117 120.058 199.117 118.693C199.117 117.242 199.202 115.834 199.373 114.469C199.629 113.104 200.013 111.866 200.525 110.757C201.037 109.562 201.89 108.666 203.085 108.069C205.645 106.704 207.992 106.618 210.125 107.813C212.344 109.008 213.666 111.482 214.093 115.237C214.349 117.2 214.434 119.376 214.349 121.765C214.349 124.154 214.434 126.33 214.605 128.293C214.69 131.194 214.776 134.352 214.861 137.765C214.946 141.093 215.416 144.08 216.269 146.725C217.208 149.37 218.701 151.376 220.749 152.741C222.882 154.021 226.04 154.064 230.221 152.869C232.184 152.272 233.464 150.778 234.061 148.389C234.744 146 235.085 142.458 235.085 137.765C235.085 135.717 235.042 133.456 234.957 130.981C234.872 128.506 234.829 126.074 234.829 123.685C234.829 121.21 234.872 118.949 234.957 116.901C235.128 114.768 235.384 113.146 235.725 112.037C236.152 110.501 237.048 109.349 238.413 108.581C239.778 107.813 241.229 107.429 242.765 107.429C244.301 107.344 245.752 107.642 247.117 108.325C248.482 109.008 249.421 110.117 249.933 111.653C250.445 113.018 250.786 114.768 250.957 116.901C251.213 118.949 251.384 121.21 251.469 123.685C251.554 126.074 251.554 128.549 251.469 131.109C251.469 133.584 251.426 135.93 251.341 138.149ZM278.37 110.757C281.186 109.392 284.13 108.41 287.202 107.813C290.274 107.216 293.303 107.088 296.29 107.429C299.362 107.77 302.306 108.581 305.122 109.861C308.023 111.141 310.669 112.933 313.058 115.237C315.021 117.2 316.727 119.589 318.178 122.405C319.629 125.136 320.695 127.824 321.378 130.469C322.829 135.162 323.042 139.898 322.018 144.677C320.994 149.456 319.245 153.893 316.77 157.989C315.575 159.866 314.082 161.573 312.29 163.109C310.583 164.56 308.749 165.754 306.786 166.693C304.226 167.888 301.453 168.698 298.466 169.125C295.479 169.637 292.578 169.765 289.762 169.509C284.642 169.253 280.119 167.973 276.194 165.669C272.354 163.365 269.239 160.421 266.85 156.837C264.546 153.253 263.01 149.2 262.242 144.677C261.559 140.069 261.858 135.376 263.138 130.597C264.503 125.477 266.466 121.338 269.026 118.181C271.671 114.938 274.786 112.464 278.37 110.757ZM282.21 127.909C280.93 129.104 279.949 130.597 279.266 132.389C278.583 134.181 278.157 136.058 277.986 138.021C277.815 139.898 277.943 141.818 278.37 143.781C278.882 145.658 279.65 147.365 280.674 148.901C281.527 150.181 283.063 151.248 285.282 152.101C287.501 152.954 289.805 153.466 292.194 153.637C294.925 153.808 297.314 153.082 299.362 151.461C301.41 149.754 302.946 147.664 303.97 145.189C305.079 142.714 305.591 140.026 305.506 137.125C305.421 134.224 304.653 131.578 303.202 129.189C302.178 127.482 300.727 126.245 298.85 125.477C297.058 124.624 295.138 124.197 293.09 124.197C291.127 124.112 289.165 124.41 287.202 125.093C285.239 125.69 283.575 126.629 282.21 127.909ZM380.764 112.165C381.447 113.786 381.489 115.578 380.892 117.541C380.38 119.504 379.399 120.784 377.948 121.381C377.18 121.722 376.156 122.021 374.876 122.277C373.596 122.448 372.188 122.618 370.652 122.789C369.201 122.96 367.751 123.088 366.3 123.173C364.849 123.258 363.612 123.301 362.588 123.301C362.673 125.861 362.759 128.506 362.844 131.237C362.929 133.882 363.015 136.485 363.1 139.045C363.185 141.605 363.228 144.08 363.228 146.469C363.228 148.773 363.185 150.864 363.1 152.741C363.1 154.021 363.1 155.514 363.1 157.221C363.1 158.842 362.972 160.421 362.716 161.957C362.545 163.493 362.247 164.858 361.82 166.053C361.393 167.162 360.753 167.888 359.9 168.229C357.255 169.338 354.823 169.637 352.604 169.125C350.471 168.698 348.935 167.802 347.996 166.437C347.313 165.328 346.801 164.048 346.46 162.597C346.119 161.061 345.863 159.525 345.692 157.989C345.607 156.368 345.564 154.832 345.564 153.381C345.649 151.845 345.692 150.522 345.692 149.413C345.777 145.829 345.82 141.776 345.82 137.253C345.905 132.645 345.948 128.037 345.948 123.429H344.028C343.004 123.429 341.681 123.429 340.06 123.429C338.524 123.344 336.945 123.216 335.324 123.045C333.788 122.789 332.337 122.49 330.972 122.149C329.607 121.722 328.625 121.125 328.028 120.357C327.089 119.248 326.492 118.053 326.236 116.773C326.065 115.493 326.151 114.298 326.492 113.189C326.919 111.994 327.559 110.97 328.412 110.117C329.265 109.178 330.247 108.581 331.356 108.325C332.892 107.898 335.068 107.685 337.884 107.685C340.7 107.6 343.345 107.6 345.82 107.685C345.735 106.832 345.692 106.021 345.692 105.253C345.692 104.4 345.649 103.589 345.564 102.821C345.479 101.797 345.436 100.517 345.436 98.981C345.436 97.36 345.521 95.781 345.692 94.245C345.948 92.624 346.332 91.13 346.844 89.765C347.356 88.314 348.081 87.205 349.02 86.437C350.3 85.413 351.58 84.858 352.86 84.773C354.225 84.602 355.463 84.773 356.572 85.285C357.767 85.797 358.748 86.565 359.516 87.589C360.369 88.528 360.967 89.594 361.308 90.789C361.564 91.813 361.777 93.05 361.948 94.501C362.119 95.866 362.204 97.317 362.204 98.853C362.289 100.389 362.332 101.925 362.332 103.461C362.332 104.997 362.332 106.405 362.332 107.685H363.612C364.892 107.685 366.385 107.642 368.092 107.557C369.799 107.472 371.463 107.514 373.084 107.685C374.791 107.856 376.327 108.282 377.692 108.965C379.057 109.562 380.081 110.629 380.764 112.165ZM430.771 151.077C431.795 150.821 432.819 150.65 433.843 150.565C434.952 150.48 435.934 150.608 436.787 150.949C437.726 151.29 438.494 151.888 439.091 152.741C439.688 153.509 439.987 154.618 439.987 156.069C439.987 157.093 439.731 158.074 439.219 159.013C438.707 159.952 438.067 160.805 437.299 161.573C436.531 162.341 435.678 163.024 434.739 163.621C433.8 164.133 432.904 164.56 432.051 164.901C429.576 166.01 426.718 166.864 423.475 167.461C420.318 168.058 417.032 168.272 413.619 168.101C409.011 167.93 404.574 167.034 400.307 165.413C396.126 163.706 392.84 160.933 390.451 157.093C388.232 153.338 386.91 149.157 386.483 144.549C386.056 139.941 386.27 135.589 387.123 131.493C388.062 126.544 389.64 122.533 391.859 119.461C394.163 116.304 396.894 113.786 400.051 111.909C403.891 109.69 408.2 108.538 412.979 108.453C417.758 108.368 422.323 109.306 426.675 111.269C429.576 112.549 432.179 114.298 434.483 116.517C436.787 118.65 438.536 121.253 439.731 124.325C440.072 125.093 440.328 126.032 440.499 127.141C440.755 128.25 440.926 129.445 441.011 130.725C441.096 131.92 441.096 133.114 441.011 134.309C440.926 135.504 440.712 136.57 440.371 137.509C439.859 139.045 439.219 140.24 438.451 141.093C437.683 141.946 436.702 142.586 435.507 143.013C434.312 143.44 432.862 143.738 431.155 143.909C429.534 143.994 427.571 144.08 425.267 144.165C423.219 144.25 421.299 144.293 419.507 144.293C417.715 144.293 415.88 144.293 414.003 144.293C412.126 144.208 410.163 144.165 408.115 144.165C406.152 144.08 403.934 143.994 401.459 143.909C401.203 145.616 401.416 147.109 402.099 148.389C402.867 149.584 403.891 150.608 405.171 151.461C406.451 152.229 407.902 152.826 409.523 153.253C411.144 153.68 412.723 153.936 414.259 154.021C417.16 154.192 419.934 153.978 422.579 153.381C425.224 152.698 427.955 151.93 430.771 151.077ZM425.267 126.245C423.646 124.368 421.939 123.002 420.147 122.149C418.782 121.552 417.331 121.296 415.795 121.381C414.344 121.381 412.936 121.594 411.571 122.021C409.096 122.618 407.006 123.898 405.299 125.861C405.128 126.032 404.83 126.458 404.403 127.141C403.976 127.738 403.55 128.378 403.123 129.061C402.782 129.744 402.526 130.384 402.355 130.981C402.184 131.578 402.27 131.877 402.611 131.877H427.699C427.614 130.682 427.4 129.701 427.059 128.933C426.718 128.08 426.12 127.184 425.267 126.245ZM481.95 146.085C480.329 145.061 478.494 144.25 476.446 143.653C474.483 143.056 472.435 142.501 470.302 141.989C468.254 141.477 466.249 140.922 464.286 140.325C462.323 139.642 460.531 138.704 458.91 137.509C455.411 134.864 453.363 131.621 452.766 127.781C452.254 123.856 453.107 119.93 455.326 116.005C456.521 113.957 458.099 112.293 460.062 111.013C462.025 109.648 464.158 108.624 466.462 107.941C468.851 107.173 471.283 106.746 473.758 106.661C476.233 106.576 478.579 106.704 480.798 107.045C482.249 107.301 483.785 107.685 485.406 108.197C487.027 108.624 488.521 109.221 489.886 109.989C491.337 110.757 492.617 111.738 493.726 112.933C494.921 114.042 495.774 115.45 496.286 117.157C496.627 118.266 496.67 119.333 496.414 120.357C496.243 121.381 495.817 122.234 495.134 122.917C494.537 123.6 493.726 124.112 492.702 124.453C491.763 124.794 490.739 124.88 489.63 124.709C488.35 124.453 487.155 124.069 486.046 123.557C484.937 123.045 483.827 122.49 482.718 121.893C481.609 121.296 480.457 120.784 479.262 120.357C478.153 119.93 476.958 119.717 475.678 119.717C473.715 119.632 472.094 119.973 470.814 120.741C469.534 121.509 468.638 122.448 468.126 123.557C467.699 124.666 467.742 125.861 468.254 127.141C468.851 128.421 470.046 129.53 471.838 130.469C473.459 131.322 475.251 132.005 477.214 132.517C479.177 133.029 481.097 133.541 482.974 134.053C484.937 134.565 486.814 135.162 488.606 135.845C490.483 136.528 492.147 137.466 493.598 138.661C496.414 140.965 498.121 143.653 498.718 146.725C499.401 149.797 499.23 152.826 498.206 155.813C497.182 158.8 495.39 161.445 492.83 163.749C490.355 166.053 487.411 167.589 483.998 168.357C481.523 168.869 478.835 169.125 475.934 169.125C473.118 169.125 470.302 168.826 467.486 168.229C464.755 167.632 462.11 166.693 459.55 165.413C457.075 164.133 454.985 162.512 453.278 160.549C452.083 159.184 451.443 157.648 451.358 155.941C451.358 154.149 451.699 152.613 452.382 151.333C453.15 149.968 454.217 149.029 455.582 148.517C456.947 148.005 458.483 148.304 460.19 149.413C461.555 150.352 463.177 151.29 465.054 152.229C466.931 153.082 468.809 153.765 470.686 154.277C472.563 154.789 474.355 155.045 476.062 155.045C477.854 155.045 479.39 154.661 480.67 153.893C482.547 152.698 483.529 151.333 483.614 149.797C483.699 148.176 483.145 146.938 481.95 146.085Z"/>
</mask>
<path d="M251.341 138.149C251.17 140.965 251 143.824 250.829 146.725C250.658 149.541 250.189 152.272 249.421 154.917C248.738 157.562 247.629 159.952 246.093 162.085C244.642 164.218 242.552 165.925 239.821 167.205C237.432 168.4 234.872 169.21 232.141 169.637C229.41 170.149 226.68 170.362 223.949 170.277C221.218 170.192 218.573 169.765 216.013 168.997C213.453 168.314 211.149 167.333 209.101 166.053C207.053 164.773 205.389 163.109 204.109 161.061C202.829 159.013 201.805 156.794 201.037 154.405C200.354 152.016 199.885 149.541 199.629 146.981C199.373 144.421 199.202 142.032 199.117 139.813C198.776 133.925 198.776 128.122 199.117 122.405C199.117 121.296 199.117 120.058 199.117 118.693C199.117 117.242 199.202 115.834 199.373 114.469C199.629 113.104 200.013 111.866 200.525 110.757C201.037 109.562 201.89 108.666 203.085 108.069C205.645 106.704 207.992 106.618 210.125 107.813C212.344 109.008 213.666 111.482 214.093 115.237C214.349 117.2 214.434 119.376 214.349 121.765C214.349 124.154 214.434 126.33 214.605 128.293C214.69 131.194 214.776 134.352 214.861 137.765C214.946 141.093 215.416 144.08 216.269 146.725C217.208 149.37 218.701 151.376 220.749 152.741C222.882 154.021 226.04 154.064 230.221 152.869C232.184 152.272 233.464 150.778 234.061 148.389C234.744 146 235.085 142.458 235.085 137.765C235.085 135.717 235.042 133.456 234.957 130.981C234.872 128.506 234.829 126.074 234.829 123.685C234.829 121.21 234.872 118.949 234.957 116.901C235.128 114.768 235.384 113.146 235.725 112.037C236.152 110.501 237.048 109.349 238.413 108.581C239.778 107.813 241.229 107.429 242.765 107.429C244.301 107.344 245.752 107.642 247.117 108.325C248.482 109.008 249.421 110.117 249.933 111.653C250.445 113.018 250.786 114.768 250.957 116.901C251.213 118.949 251.384 121.21 251.469 123.685C251.554 126.074 251.554 128.549 251.469 131.109C251.469 133.584 251.426 135.93 251.341 138.149ZM278.37 110.757C281.186 109.392 284.13 108.41 287.202 107.813C290.274 107.216 293.303 107.088 296.29 107.429C299.362 107.77 302.306 108.581 305.122 109.861C308.023 111.141 310.669 112.933 313.058 115.237C315.021 117.2 316.727 119.589 318.178 122.405C319.629 125.136 320.695 127.824 321.378 130.469C322.829 135.162 323.042 139.898 322.018 144.677C320.994 149.456 319.245 153.893 316.77 157.989C315.575 159.866 314.082 161.573 312.29 163.109C310.583 164.56 308.749 165.754 306.786 166.693C304.226 167.888 301.453 168.698 298.466 169.125C295.479 169.637 292.578 169.765 289.762 169.509C284.642 169.253 280.119 167.973 276.194 165.669C272.354 163.365 269.239 160.421 266.85 156.837C264.546 153.253 263.01 149.2 262.242 144.677C261.559 140.069 261.858 135.376 263.138 130.597C264.503 125.477 266.466 121.338 269.026 118.181C271.671 114.938 274.786 112.464 278.37 110.757ZM282.21 127.909C280.93 129.104 279.949 130.597 279.266 132.389C278.583 134.181 278.157 136.058 277.986 138.021C277.815 139.898 277.943 141.818 278.37 143.781C278.882 145.658 279.65 147.365 280.674 148.901C281.527 150.181 283.063 151.248 285.282 152.101C287.501 152.954 289.805 153.466 292.194 153.637C294.925 153.808 297.314 153.082 299.362 151.461C301.41 149.754 302.946 147.664 303.97 145.189C305.079 142.714 305.591 140.026 305.506 137.125C305.421 134.224 304.653 131.578 303.202 129.189C302.178 127.482 300.727 126.245 298.85 125.477C297.058 124.624 295.138 124.197 293.09 124.197C291.127 124.112 289.165 124.41 287.202 125.093C285.239 125.69 283.575 126.629 282.21 127.909ZM380.764 112.165C381.447 113.786 381.489 115.578 380.892 117.541C380.38 119.504 379.399 120.784 377.948 121.381C377.18 121.722 376.156 122.021 374.876 122.277C373.596 122.448 372.188 122.618 370.652 122.789C369.201 122.96 367.751 123.088 366.3 123.173C364.849 123.258 363.612 123.301 362.588 123.301C362.673 125.861 362.759 128.506 362.844 131.237C362.929 133.882 363.015 136.485 363.1 139.045C363.185 141.605 363.228 144.08 363.228 146.469C363.228 148.773 363.185 150.864 363.1 152.741C363.1 154.021 363.1 155.514 363.1 157.221C363.1 158.842 362.972 160.421 362.716 161.957C362.545 163.493 362.247 164.858 361.82 166.053C361.393 167.162 360.753 167.888 359.9 168.229C357.255 169.338 354.823 169.637 352.604 169.125C350.471 168.698 348.935 167.802 347.996 166.437C347.313 165.328 346.801 164.048 346.46 162.597C346.119 161.061 345.863 159.525 345.692 157.989C345.607 156.368 345.564 154.832 345.564 153.381C345.649 151.845 345.692 150.522 345.692 149.413C345.777 145.829 345.82 141.776 345.82 137.253C345.905 132.645 345.948 128.037 345.948 123.429H344.028C343.004 123.429 341.681 123.429 340.06 123.429C338.524 123.344 336.945 123.216 335.324 123.045C333.788 122.789 332.337 122.49 330.972 122.149C329.607 121.722 328.625 121.125 328.028 120.357C327.089 119.248 326.492 118.053 326.236 116.773C326.065 115.493 326.151 114.298 326.492 113.189C326.919 111.994 327.559 110.97 328.412 110.117C329.265 109.178 330.247 108.581 331.356 108.325C332.892 107.898 335.068 107.685 337.884 107.685C340.7 107.6 343.345 107.6 345.82 107.685C345.735 106.832 345.692 106.021 345.692 105.253C345.692 104.4 345.649 103.589 345.564 102.821C345.479 101.797 345.436 100.517 345.436 98.981C345.436 97.36 345.521 95.781 345.692 94.245C345.948 92.624 346.332 91.13 346.844 89.765C347.356 88.314 348.081 87.205 349.02 86.437C350.3 85.413 351.58 84.858 352.86 84.773C354.225 84.602 355.463 84.773 356.572 85.285C357.767 85.797 358.748 86.565 359.516 87.589C360.369 88.528 360.967 89.594 361.308 90.789C361.564 91.813 361.777 93.05 361.948 94.501C362.119 95.866 362.204 97.317 362.204 98.853C362.289 100.389 362.332 101.925 362.332 103.461C362.332 104.997 362.332 106.405 362.332 107.685H363.612C364.892 107.685 366.385 107.642 368.092 107.557C369.799 107.472 371.463 107.514 373.084 107.685C374.791 107.856 376.327 108.282 377.692 108.965C379.057 109.562 380.081 110.629 380.764 112.165ZM430.771 151.077C431.795 150.821 432.819 150.65 433.843 150.565C434.952 150.48 435.934 150.608 436.787 150.949C437.726 151.29 438.494 151.888 439.091 152.741C439.688 153.509 439.987 154.618 439.987 156.069C439.987 157.093 439.731 158.074 439.219 159.013C438.707 159.952 438.067 160.805 437.299 161.573C436.531 162.341 435.678 163.024 434.739 163.621C433.8 164.133 432.904 164.56 432.051 164.901C429.576 166.01 426.718 166.864 423.475 167.461C420.318 168.058 417.032 168.272 413.619 168.101C409.011 167.93 404.574 167.034 400.307 165.413C396.126 163.706 392.84 160.933 390.451 157.093C388.232 153.338 386.91 149.157 386.483 144.549C386.056 139.941 386.27 135.589 387.123 131.493C388.062 126.544 389.64 122.533 391.859 119.461C394.163 116.304 396.894 113.786 400.051 111.909C403.891 109.69 408.2 108.538 412.979 108.453C417.758 108.368 422.323 109.306 426.675 111.269C429.576 112.549 432.179 114.298 434.483 116.517C436.787 118.65 438.536 121.253 439.731 124.325C440.072 125.093 440.328 126.032 440.499 127.141C440.755 128.25 440.926 129.445 441.011 130.725C441.096 131.92 441.096 133.114 441.011 134.309C440.926 135.504 440.712 136.57 440.371 137.509C439.859 139.045 439.219 140.24 438.451 141.093C437.683 141.946 436.702 142.586 435.507 143.013C434.312 143.44 432.862 143.738 431.155 143.909C429.534 143.994 427.571 144.08 425.267 144.165C423.219 144.25 421.299 144.293 419.507 144.293C417.715 144.293 415.88 144.293 414.003 144.293C412.126 144.208 410.163 144.165 408.115 144.165C406.152 144.08 403.934 143.994 401.459 143.909C401.203 145.616 401.416 147.109 402.099 148.389C402.867 149.584 403.891 150.608 405.171 151.461C406.451 152.229 407.902 152.826 409.523 153.253C411.144 153.68 412.723 153.936 414.259 154.021C417.16 154.192 419.934 153.978 422.579 153.381C425.224 152.698 427.955 151.93 430.771 151.077ZM425.267 126.245C423.646 124.368 421.939 123.002 420.147 122.149C418.782 121.552 417.331 121.296 415.795 121.381C414.344 121.381 412.936 121.594 411.571 122.021C409.096 122.618 407.006 123.898 405.299 125.861C405.128 126.032 404.83 126.458 404.403 127.141C403.976 127.738 403.55 128.378 403.123 129.061C402.782 129.744 402.526 130.384 402.355 130.981C402.184 131.578 402.27 131.877 402.611 131.877H427.699C427.614 130.682 427.4 129.701 427.059 128.933C426.718 128.08 426.12 127.184 425.267 126.245ZM481.95 146.085C480.329 145.061 478.494 144.25 476.446 143.653C474.483 143.056 472.435 142.501 470.302 141.989C468.254 141.477 466.249 140.922 464.286 140.325C462.323 139.642 460.531 138.704 458.91 137.509C455.411 134.864 453.363 131.621 452.766 127.781C452.254 123.856 453.107 119.93 455.326 116.005C456.521 113.957 458.099 112.293 460.062 111.013C462.025 109.648 464.158 108.624 466.462 107.941C468.851 107.173 471.283 106.746 473.758 106.661C476.233 106.576 478.579 106.704 480.798 107.045C482.249 107.301 483.785 107.685 485.406 108.197C487.027 108.624 488.521 109.221 489.886 109.989C491.337 110.757 492.617 111.738 493.726 112.933C494.921 114.042 495.774 115.45 496.286 117.157C496.627 118.266 496.67 119.333 496.414 120.357C496.243 121.381 495.817 122.234 495.134 122.917C494.537 123.6 493.726 124.112 492.702 124.453C491.763 124.794 490.739 124.88 489.63 124.709C488.35 124.453 487.155 124.069 486.046 123.557C484.937 123.045 483.827 122.49 482.718 121.893C481.609 121.296 480.457 120.784 479.262 120.357C478.153 119.93 476.958 119.717 475.678 119.717C473.715 119.632 472.094 119.973 470.814 120.741C469.534 121.509 468.638 122.448 468.126 123.557C467.699 124.666 467.742 125.861 468.254 127.141C468.851 128.421 470.046 129.53 471.838 130.469C473.459 131.322 475.251 132.005 477.214 132.517C479.177 133.029 481.097 133.541 482.974 134.053C484.937 134.565 486.814 135.162 488.606 135.845C490.483 136.528 492.147 137.466 493.598 138.661C496.414 140.965 498.121 143.653 498.718 146.725C499.401 149.797 499.23 152.826 498.206 155.813C497.182 158.8 495.39 161.445 492.83 163.749C490.355 166.053 487.411 167.589 483.998 168.357C481.523 168.869 478.835 169.125 475.934 169.125C473.118 169.125 470.302 168.826 467.486 168.229C464.755 167.632 462.11 166.693 459.55 165.413C457.075 164.133 454.985 162.512 453.278 160.549C452.083 159.184 451.443 157.648 451.358 155.941C451.358 154.149 451.699 152.613 452.382 151.333C453.15 149.968 454.217 149.029 455.582 148.517C456.947 148.005 458.483 148.304 460.19 149.413C461.555 150.352 463.177 151.29 465.054 152.229C466.931 153.082 468.809 153.765 470.686 154.277C472.563 154.789 474.355 155.045 476.062 155.045C477.854 155.045 479.39 154.661 480.67 153.893C482.547 152.698 483.529 151.333 483.614 149.797C483.699 148.176 483.145 146.938 481.95 146.085Z" fill="#232323" stroke="#CFD0D0" stroke-width="2" mask="url(#path-7-inside-1_108_4)"/>
</g>
<defs>
<clipPath id="clip0_108_4">
<rect width="499.5" height="186" fill="white"/>
</clipPath>
</defs>
</svg>
